<svg id="visual" viewBox="0 0 960 540" width="960" height="540" xmlns="http://www.w3.org/2000/svg" xmlns:xlink="http://www.w3.org/1999/xlink" version="1.1"><rect x="0" y="0" width="960" height="540" fill="#ffffff"></rect><defs><linearGradient id="grad1_0" x1="43.8%" y1="0%" x2="100%" y2="100%"><stop offset="14.444444444444446%" stop-color="#ffffff" stop-opacity="1"></stop><stop offset="85.55555555555554%" stop-color="#ffffff" stop-opacity="1"></stop></linearGradient></defs><defs><linearGradient id="grad2_0" x1="0%" y1="0%" x2="56.3%" y2="100%"><stop offset="14.444444444444446%" stop-color="#ffffff" stop-opacity="1"></stop><stop offset="85.55555555555554%" stop-color="#ffffff" stop-opacity="1"></stop></linearGradient></defs><g transform="translate(960, 0)"><path d="M0 431C-23.6 401.1 -47.2 371.2 -89 390C-130.8 408.8 -190.8 476.3 -233.4 484.7C-276 493.1 -301.3 442.4 -313.6 393.3C-326 344.1 -325.5 296.5 -326 260C-326.6 223.5 -328.2 198.3 -373 179.6C-417.8 161 -505.6 149 -526.5 120.2C-547.3 91.3 -501.2 45.7 -455 0L0 0Z" fill="#92006B"></path></g><g transform="translate(0, 540)"><path d="M0 -469C44.8 -506.6 89.5 -544.2 120.2 -526.5C150.8 -508.7 167.3 -435.5 191.8 -398.2C216.2 -361 248.6 -359.6 278.1 -348.7C307.5 -337.8 334 -317.4 374.5 -298.7C415 -279.9 469.6 -262.8 467.6 -225.2C465.6 -187.5 406.9 -129.3 387 -88.3C367.2 -47.4 386.1 -23.7 405 0L0 0Z" fill="#92006B"></path></g></svg>